<svg width="899" height="85" viewBox="0 0 899 85" fill="none" xmlns="http://www.w3.org/2000/svg">
<rect x="49" y="32" width="12" height="20" rx="6" fill="#9D4BE7"/>
<rect x="64" y="20" width="10" height="40" rx="5" fill="#9D4BE7"/>
<rect x="81" y="26" width="9" height="29" rx="4.5" fill="#9D4BE7"/>
<rect x="95" y="12" width="9" height="54" rx="4.5" fill="#9D4BE7"/>
<rect x="110" y="18" width="10" height="42" rx="5" fill="#9D4BE7"/>
<rect x="124" y="32" width="11" height="20" rx="5.5" fill="#9D4BE7"/>
<g filter="url(#filter0_d_1364_733)">
<rect x="4" width="891" height="77" rx="8" fill="white"/>
<rect x="5" y="1" width="889" height="75" rx="7" stroke="#9D4BE7" stroke-width="2"/>
</g>
<path fill-rule="evenodd" clip-rule="evenodd" d="M106.019 17C103.901 17 102.185 18.7162 102.185 20.8333V59.1667C102.185 61.2838 103.901 63 106.019 63C108.136 63 109.852 61.2838 109.852 59.1667V20.8333C109.852 18.7162 108.136 17 106.019 17ZM80.037 23.8148C77.6847 23.8148 75.7778 25.7218 75.7778 28.0741V53.6296C75.7778 55.982 77.6847 57.8889 80.037 57.8889C82.3894 57.8889 84.2963 55.982 84.2963 53.6296V28.0741C84.2963 25.7218 82.3894 23.8148 80.037 23.8148ZM68.1111 34.037C65.2883 34.037 63 36.3254 63 39.1481V45.963C63 48.7857 65.2883 51.0741 68.1111 51.0741C70.9339 51.0741 73.2222 48.7858 73.2222 45.963V39.1482C73.2222 36.3254 70.9339 34.037 68.1111 34.037ZM90.2593 32.7593C90.2593 30.6422 91.9755 28.9259 94.0926 28.9259C96.2097 28.9259 97.9259 30.6422 97.9259 32.7593V49.7963C97.9259 51.9134 96.2097 53.6296 94.0926 53.6296C91.9755 53.6296 90.2593 51.9134 90.2593 49.7963V32.7593ZM114.963 26.3704C114.963 24.018 116.87 22.1111 119.222 22.1111C121.575 22.1111 123.481 24.018 123.481 26.3704V53.6296C123.481 55.982 121.575 57.8889 119.222 57.8889C116.87 57.8889 114.963 55.982 114.963 53.6296V26.3704ZM131.574 34.037C128.987 34.037 126.889 36.1347 126.889 38.7222V46.3889C126.889 48.9764 128.987 51.0741 131.574 51.0741C134.162 51.0741 136.259 48.9764 136.259 46.3889V38.7222C136.259 36.1347 134.162 34.037 131.574 34.037Z" fill="#DDDDDD"/>
<path fill-rule="evenodd" clip-rule="evenodd" d="M183.538 17C181.421 17 179.705 18.7162 179.705 20.8333V59.1667C179.705 61.2838 181.421 63 183.538 63C185.655 63 187.371 61.2838 187.371 59.1667V20.8333C187.371 18.7162 185.655 17 183.538 17ZM157.557 23.8148C155.204 23.8148 153.297 25.7218 153.297 28.0741V53.6296C153.297 55.982 155.204 57.8889 157.557 57.8889C159.909 57.8889 161.816 55.982 161.816 53.6296V28.0741C161.816 25.7218 159.909 23.8148 157.557 23.8148ZM145.631 34.037C142.808 34.037 140.52 36.3254 140.52 39.1481V45.963C140.52 48.7857 142.808 51.0741 145.631 51.0741C148.453 51.0741 150.742 48.7858 150.742 45.963V39.1482C150.742 36.3254 148.453 34.037 145.631 34.037ZM167.779 32.7593C167.779 30.6422 169.495 28.9259 171.612 28.9259C173.729 28.9259 175.445 30.6422 175.445 32.7593V49.7963C175.445 51.9134 173.729 53.6296 171.612 53.6296C169.495 53.6296 167.779 51.9134 167.779 49.7963V32.7593ZM192.482 26.3704C192.482 24.018 194.389 22.1111 196.742 22.1111C199.094 22.1111 201.001 24.018 201.001 26.3704V53.6296C201.001 55.982 199.094 57.8889 196.742 57.8889C194.389 57.8889 192.482 55.982 192.482 53.6296V26.3704ZM209.094 34.037C206.506 34.037 204.408 36.1347 204.408 38.7222V46.3889C204.408 48.9764 206.506 51.0741 209.094 51.0741C211.681 51.0741 213.779 48.9764 213.779 46.3889V38.7222C213.779 36.1347 211.681 34.037 209.094 34.037Z" fill="#DDDDDD"/>
<path fill-rule="evenodd" clip-rule="evenodd" d="M261.056 17C258.939 17 257.222 18.7162 257.222 20.8333V59.1667C257.222 61.2838 258.939 63 261.056 63C263.173 63 264.889 61.2838 264.889 59.1667V20.8333C264.889 18.7162 263.173 17 261.056 17ZM235.074 23.8148C232.722 23.8148 230.815 25.7218 230.815 28.0741V53.6296C230.815 55.982 232.722 57.8889 235.074 57.8889C237.426 57.8889 239.333 55.982 239.333 53.6296V28.0741C239.333 25.7218 237.426 23.8148 235.074 23.8148ZM223.148 34.037C220.325 34.037 218.037 36.3254 218.037 39.1481V45.963C218.037 48.7857 220.325 51.0741 223.148 51.0741C225.971 51.0741 228.259 48.7858 228.259 45.963V39.1482C228.259 36.3254 225.971 34.037 223.148 34.037ZM245.296 32.7593C245.296 30.6422 247.013 28.9259 249.13 28.9259C251.247 28.9259 252.963 30.6422 252.963 32.7593V49.7963C252.963 51.9134 251.247 53.6296 249.13 53.6296C247.013 53.6296 245.296 51.9134 245.296 49.7963V32.7593ZM270 26.3704C270 24.018 271.907 22.1111 274.259 22.1111C276.612 22.1111 278.519 24.018 278.519 26.3704V53.6296C278.519 55.982 276.612 57.8889 274.259 57.8889C271.907 57.8889 270 55.982 270 53.6296V26.3704ZM286.611 34.037C284.024 34.037 281.926 36.1347 281.926 38.7222V46.3889C281.926 48.9764 284.024 51.0741 286.611 51.0741C289.199 51.0741 291.296 48.9764 291.296 46.3889V38.7222C291.296 36.1347 289.199 34.037 286.611 34.037Z" fill="#DDDDDD"/>
<path fill-rule="evenodd" clip-rule="evenodd" d="M338.575 17C336.458 17 334.742 18.7162 334.742 20.8333V59.1667C334.742 61.2838 336.458 63 338.575 63C340.692 63 342.408 61.2838 342.408 59.1667V20.8333C342.408 18.7162 340.692 17 338.575 17ZM312.594 23.8148C310.241 23.8148 308.334 25.7218 308.334 28.0741V53.6296C308.334 55.982 310.241 57.8889 312.594 57.8889C314.946 57.8889 316.853 55.982 316.853 53.6296V28.0741C316.853 25.7218 314.946 23.8148 312.594 23.8148ZM300.668 34.037C297.845 34.037 295.557 36.3254 295.557 39.1481V45.963C295.557 48.7857 297.845 51.0741 300.668 51.0741C303.491 51.0741 305.779 48.7858 305.779 45.963V39.1482C305.779 36.3254 303.491 34.037 300.668 34.037ZM322.816 32.7593C322.816 30.6422 324.532 28.9259 326.649 28.9259C328.766 28.9259 330.483 30.6422 330.483 32.7593V49.7963C330.483 51.9134 328.766 53.6296 326.649 53.6296C324.532 53.6296 322.816 51.9134 322.816 49.7963V32.7593ZM347.52 26.3704C347.52 24.018 349.427 22.1111 351.779 22.1111C354.131 22.1111 356.038 24.018 356.038 26.3704V53.6296C356.038 55.982 354.131 57.8889 351.779 57.8889C349.427 57.8889 347.52 55.982 347.52 53.6296V26.3704ZM364.131 34.037C361.543 34.037 359.446 36.1347 359.446 38.7222V46.3889C359.446 48.9764 361.543 51.0741 364.131 51.0741C366.718 51.0741 368.816 48.9764 368.816 46.3889V38.7222C368.816 36.1347 366.718 34.037 364.131 34.037Z" fill="#DDDDDD"/>
<path fill-rule="evenodd" clip-rule="evenodd" d="M416.093 17C413.976 17 412.259 18.7162 412.259 20.8333V59.1667C412.259 61.2838 413.976 63 416.093 63C418.21 63 419.926 61.2838 419.926 59.1667V20.8333C419.926 18.7162 418.21 17 416.093 17ZM390.111 23.8148C387.759 23.8148 385.852 25.7218 385.852 28.0741V53.6296C385.852 55.982 387.759 57.8889 390.111 57.8889C392.464 57.8889 394.371 55.982 394.371 53.6296V28.0741C394.371 25.7218 392.464 23.8148 390.111 23.8148ZM378.185 34.037C375.363 34.037 373.074 36.3254 373.074 39.1481V45.963C373.074 48.7857 375.363 51.0741 378.185 51.0741C381.008 51.0741 383.296 48.7858 383.296 45.963V39.1482C383.296 36.3254 381.008 34.037 378.185 34.037ZM400.333 32.7593C400.333 30.6422 402.05 28.9259 404.167 28.9259C406.284 28.9259 408 30.6422 408 32.7593V49.7963C408 51.9134 406.284 53.6296 404.167 53.6296C402.05 53.6296 400.333 51.9134 400.333 49.7963V32.7593ZM425.037 26.3704C425.037 24.018 426.944 22.1111 429.296 22.1111C431.649 22.1111 433.556 24.018 433.556 26.3704V53.6296C433.556 55.982 431.649 57.8889 429.296 57.8889C426.944 57.8889 425.037 55.982 425.037 53.6296V26.3704ZM441.648 34.037C439.061 34.037 436.963 36.1347 436.963 38.7222V46.3889C436.963 48.9764 439.061 51.0741 441.648 51.0741C444.236 51.0741 446.333 48.9764 446.333 46.3889V38.7222C446.333 36.1347 444.236 34.037 441.648 34.037Z" fill="#DDDDDD"/>
<path fill-rule="evenodd" clip-rule="evenodd" d="M493.612 17C491.495 17 489.779 18.7162 489.779 20.8333V59.1667C489.779 61.2838 491.495 63 493.612 63C495.729 63 497.446 61.2838 497.446 59.1667V20.8333C497.446 18.7162 495.729 17 493.612 17ZM467.631 23.8148C465.278 23.8148 463.372 25.7218 463.372 28.0741V53.6296C463.372 55.982 465.278 57.8889 467.631 57.8889C469.983 57.8889 471.89 55.982 471.89 53.6296V28.0741C471.89 25.7218 469.983 23.8148 467.631 23.8148ZM455.705 34.037C452.882 34.037 450.594 36.3254 450.594 39.1481V45.963C450.594 48.7857 452.882 51.0741 455.705 51.0741C458.528 51.0741 460.816 48.7858 460.816 45.963V39.1482C460.816 36.3254 458.528 34.037 455.705 34.037ZM477.853 32.7593C477.853 30.6422 479.569 28.9259 481.686 28.9259C483.803 28.9259 485.52 30.6422 485.52 32.7593V49.7963C485.52 51.9134 483.803 53.6296 481.686 53.6296C479.569 53.6296 477.853 51.9134 477.853 49.7963V32.7593ZM502.557 26.3704C502.557 24.018 504.464 22.1111 506.816 22.1111C509.168 22.1111 511.075 24.018 511.075 26.3704V53.6296C511.075 55.982 509.168 57.8889 506.816 57.8889C504.464 57.8889 502.557 55.982 502.557 53.6296V26.3704ZM519.168 34.037C516.58 34.037 514.483 36.1347 514.483 38.7222V46.3889C514.483 48.9764 516.58 51.0741 519.168 51.0741C521.755 51.0741 523.853 48.9764 523.853 46.3889V38.7222C523.853 36.1347 521.755 34.037 519.168 34.037Z" fill="#DDDDDD"/>
<path fill-rule="evenodd" clip-rule="evenodd" d="M648.649 17C646.532 17 644.816 18.7162 644.816 20.8333V59.1667C644.816 61.2838 646.532 63 648.649 63C650.766 63 652.483 61.2838 652.483 59.1667V20.8333C652.483 18.7162 650.766 17 648.649 17ZM622.668 23.8148C620.316 23.8148 618.409 25.7218 618.409 28.0741V53.6296C618.409 55.982 620.316 57.8889 622.668 57.8889C625.02 57.8889 626.927 55.982 626.927 53.6296V28.0741C626.927 25.7218 625.02 23.8148 622.668 23.8148ZM610.742 34.037C607.919 34.037 605.631 36.3254 605.631 39.1481V45.963C605.631 48.7857 607.919 51.0741 610.742 51.0741C613.565 51.0741 615.853 48.7858 615.853 45.963V39.1482C615.853 36.3254 613.565 34.037 610.742 34.037ZM632.89 32.7593C632.89 30.6422 634.606 28.9259 636.723 28.9259C638.841 28.9259 640.557 30.6422 640.557 32.7593V49.7963C640.557 51.9134 638.841 53.6296 636.723 53.6296C634.606 53.6296 632.89 51.9134 632.89 49.7963V32.7593ZM657.594 26.3704C657.594 24.018 659.501 22.1111 661.853 22.1111C664.205 22.1111 666.112 24.018 666.112 26.3704V53.6296C666.112 55.982 664.205 57.8889 661.853 57.8889C659.501 57.8889 657.594 55.982 657.594 53.6296V26.3704ZM674.205 34.037C671.617 34.037 669.52 36.1347 669.52 38.7222V46.3889C669.52 48.9764 671.617 51.0741 674.205 51.0741C676.792 51.0741 678.89 48.9764 678.89 46.3889V38.7222C678.89 36.1347 676.792 34.037 674.205 34.037Z" fill="#D9D9D9"/>
<path fill-rule="evenodd" clip-rule="evenodd" d="M726.167 17C724.05 17 722.334 18.7162 722.334 20.8333V59.1667C722.334 61.2838 724.05 63 726.167 63C728.284 63 730 61.2838 730 59.1667V20.8333C730 18.7162 728.284 17 726.167 17ZM700.185 23.8148C697.833 23.8148 695.926 25.7218 695.926 28.0741V53.6296C695.926 55.982 697.833 57.8889 700.185 57.8889C702.538 57.8889 704.445 55.982 704.445 53.6296V28.0741C704.445 25.7218 702.538 23.8148 700.185 23.8148ZM688.26 34.037C685.437 34.037 683.148 36.3254 683.148 39.1481V45.963C683.148 48.7857 685.437 51.0741 688.26 51.0741C691.082 51.0741 693.371 48.7858 693.371 45.963V39.1482C693.371 36.3254 691.082 34.037 688.26 34.037ZM710.408 32.7593C710.408 30.6422 712.124 28.9259 714.241 28.9259C716.358 28.9259 718.074 30.6422 718.074 32.7593V49.7963C718.074 51.9134 716.358 53.6296 714.241 53.6296C712.124 53.6296 710.408 51.9134 710.408 49.7963V32.7593ZM735.111 26.3704C735.111 24.018 737.018 22.1111 739.371 22.1111C741.723 22.1111 743.63 24.018 743.63 26.3704V53.6296C743.63 55.982 741.723 57.8889 739.371 57.8889C737.018 57.8889 735.111 55.982 735.111 53.6296V26.3704ZM751.723 34.037C749.135 34.037 747.037 36.1347 747.037 38.7222V46.3889C747.037 48.9764 749.135 51.0741 751.723 51.0741C754.31 51.0741 756.408 48.9764 756.408 46.3889V38.7222C756.408 36.1347 754.31 34.037 751.723 34.037Z" fill="#D9D9D9"/>
<path fill-rule="evenodd" clip-rule="evenodd" d="M804.019 17C801.901 17 800.185 18.7162 800.185 20.8333V59.1667C800.185 61.2838 801.901 63 804.019 63C806.136 63 807.852 61.2838 807.852 59.1667V20.8333C807.852 18.7162 806.136 17 804.019 17ZM778.037 23.8148C775.685 23.8148 773.778 25.7218 773.778 28.0741V53.6296C773.778 55.982 775.685 57.8889 778.037 57.8889C780.389 57.8889 782.296 55.982 782.296 53.6296V28.0741C782.296 25.7218 780.389 23.8148 778.037 23.8148ZM766.111 34.037C763.288 34.037 761 36.3254 761 39.1481V45.963C761 48.7857 763.288 51.0741 766.111 51.0741C768.934 51.0741 771.222 48.7858 771.222 45.963V39.1482C771.222 36.3254 768.934 34.037 766.111 34.037ZM788.259 32.7593C788.259 30.6422 789.976 28.9259 792.093 28.9259C794.21 28.9259 795.926 30.6422 795.926 32.7593V49.7963C795.926 51.9134 794.21 53.6296 792.093 53.6296C789.976 53.6296 788.259 51.9134 788.259 49.7963V32.7593ZM812.963 26.3704C812.963 24.018 814.87 22.1111 817.222 22.1111C819.575 22.1111 821.481 24.018 821.481 26.3704V53.6296C821.481 55.982 819.575 57.8889 817.222 57.8889C814.87 57.8889 812.963 55.982 812.963 53.6296V26.3704ZM829.574 34.037C826.987 34.037 824.889 36.1347 824.889 38.7222V46.3889C824.889 48.9764 826.987 51.0741 829.574 51.0741C832.162 51.0741 834.259 48.9764 834.259 46.3889V38.7222C834.259 36.1347 832.162 34.037 829.574 34.037Z" fill="#D9D9D9"/>
<path fill-rule="evenodd" clip-rule="evenodd" d="M571.13 17C569.013 17 567.297 18.7162 567.297 20.8333V59.1667C567.297 61.2838 569.013 63 571.13 63C573.247 63 574.963 61.2838 574.963 59.1667V20.8333C574.963 18.7162 573.247 17 571.13 17ZM545.148 23.8148C542.796 23.8148 540.889 25.7218 540.889 28.0741V53.6296C540.889 55.982 542.796 57.8889 545.148 57.8889C547.501 57.8889 549.408 55.982 549.408 53.6296V28.0741C549.408 25.7218 547.501 23.8148 545.148 23.8148ZM533.222 34.037C530.4 34.037 528.111 36.3254 528.111 39.1481V45.963C528.111 48.7857 530.4 51.0741 533.222 51.0741C536.045 51.0741 538.334 48.7858 538.334 45.963V39.1482C538.334 36.3254 536.045 34.037 533.222 34.037ZM555.371 32.7593C555.371 30.6422 557.087 28.9259 559.204 28.9259C561.321 28.9259 563.037 30.6422 563.037 32.7593V49.7963C563.037 51.9134 561.321 53.6296 559.204 53.6296C557.087 53.6296 555.371 51.9134 555.371 49.7963V32.7593ZM580.074 26.3704C580.074 24.018 581.981 22.1111 584.334 22.1111C586.686 22.1111 588.593 24.018 588.593 26.3704V53.6296C588.593 55.982 586.686 57.8889 584.334 57.8889C581.981 57.8889 580.074 55.982 580.074 53.6296V26.3704ZM596.685 34.037C594.098 34.037 592 36.1347 592 38.7222V46.3889C592 48.9764 594.098 51.0741 596.685 51.0741C599.273 51.0741 601.371 48.9764 601.371 46.3889V38.7222C601.371 36.1347 599.273 34.037 596.685 34.037Z" fill="#DDDDDD"/>
<defs>
<filter id="filter0_d_1364_733" x="0" y="0" width="899" height="85" filterUnits="userSpaceOnUse" color-interpolation-filters="sRGB">
<feFlood flood-opacity="0" result="BackgroundImageFix"/>
<feColorMatrix in="SourceAlpha" type="matrix" values="0 0 0 0 0 0 0 0 0 0 0 0 0 0 0 0 0 0 127 0" result="hardAlpha"/>
<feOffset dy="4"/>
<feGaussianBlur stdDeviation="2"/>
<feComposite in2="hardAlpha" operator="out"/>
<feColorMatrix type="matrix" values="0 0 0 0 0.844167 0 0 0 0 0.645833 0 0 0 0 1 0 0 0 0.25 0"/>
<feBlend mode="normal" in2="BackgroundImageFix" result="effect1_dropShadow_1364_733"/>
<feBlend mode="normal" in="SourceGraphic" in2="effect1_dropShadow_1364_733" result="shape"/>
</filter>
</defs>
</svg>
