<svg width="812" height="105" viewBox="0 0 812 105" fill="none" xmlns="http://www.w3.org/2000/svg">
<circle cx="42.5" cy="62.5" r="36.5" fill="#F7F0FF" stroke="#9D4BE7" stroke-width="12"/>
<circle cx="42.5" cy="62.5" r="5.5" fill="#9D4BE7"/>
<line x1="41.4645" y1="61.166" x2="29.0132" y2="48.7147" stroke="#9D4BE7" stroke-width="5" stroke-linecap="round"/>
<rect x="28" width="26" height="15" rx="4" fill="#9D4BE7"/>
<rect x="60.4297" y="28.0576" width="10.7468" height="14.2709" rx="4" transform="rotate(-60 60.4297 28.0576)" fill="#9D4BE7"/>
<rect x="33" y="9" width="17" height="14" rx="2" fill="#9D4BE7"/>
<rect x="117" y="31" width="23" height="56" rx="2" fill="#DDDDDD"/>
<rect x="277" y="31" width="23" height="56" rx="2" fill="#DDDDDD"/>
<rect x="149" y="31" width="23" height="56" rx="2" fill="#DDDDDD"/>
<rect x="309" y="31" width="23" height="56" rx="2" fill="#DDDDDD"/>
<rect x="181" y="31" width="23" height="56" rx="2" fill="#DDDDDD"/>
<rect x="341" y="31" width="23" height="56" rx="2" fill="#DDDDDD"/>
<rect x="213" y="31" width="23" height="56" rx="2" fill="#DDDDDD"/>
<rect x="373" y="31" width="23" height="56" rx="2" fill="#DDDDDD"/>
<rect x="245" y="31" width="23" height="56" rx="2" fill="#DDDDDD"/>
<rect x="405" y="31" width="23" height="56" rx="2" fill="#DDDDDD"/>
<rect x="437" y="31" width="23" height="56" rx="2" fill="#DDDDDD"/>
<rect x="469" y="31" width="23" height="56" rx="2" fill="#DDDDDD"/>
<rect x="501" y="31" width="23" height="56" rx="2" fill="#DDDDDD"/>
<rect x="533" y="31" width="23" height="56" rx="2" fill="#DDDDDD"/>
<rect x="565" y="31" width="23" height="56" rx="2" fill="#DDDDDD"/>
<rect x="597" y="31" width="23" height="56" rx="2" fill="#DDDDDD"/>
<rect x="629" y="31" width="23" height="56" rx="2" fill="#DDDDDD"/>
<rect x="661" y="31" width="23" height="56" rx="2" fill="#DDDDDD"/>
<rect x="693" y="31" width="23" height="56" rx="2" fill="#DDDDDD"/>
<rect x="725" y="31" width="23" height="56" rx="2" fill="#DDDDDD"/>
<rect x="757" y="31" width="23" height="56" rx="2" fill="#DDDDDD"/>
<rect x="789" y="31" width="23" height="56" rx="2" fill="#DDDDDD"/>
</svg>
